<?xml version="1.0" standalone="no"?>
<!DOCTYPE svg PUBLIC "-//W3C//DTD SVG 20010904//EN"
 "http://www.w3.org/TR/2001/REC-SVG-20010904/DTD/svg10.dtd">
<svg version="1.0" xmlns="http://www.w3.org/2000/svg"
 width="200.000000pt" height="200.000000pt" viewBox="0 0 200.000000 200.000000"
 preserveAspectRatio="xMidYMid meet">
<metadata>
Created by potrace 1.14, written by Peter Selinger 2001-2017
</metadata>
<g transform="translate(0.000000,200.000000) scale(0.100000,-0.100000)"
fill="#000000" stroke="none">
<path d="M0 1000 l0 -1000 1000 0 1000 0 0 1000 0 1000 -1000 0 -1000 0 0
-1000z m1079 559 c39 -58 71 -109 71 -112 0 -4 -15 -7 -34 -7 -31 0 -34 -2
-40 -41 -14 -90 -71 -166 -156 -210 -40 -21 -62 -24 -200 -27 -175 -5 -203
-13 -226 -67 -18 -45 -18 -158 0 -194 30 -56 42 -59 297 -63 233 -3 234 -3
291 -31 61 -30 96 -65 131 -131 19 -36 22 -60 25 -199 l4 -157 -81 0 -81 0 0
134 c0 226 9 219 -315 226 l-240 5 -53 29 c-107 59 -146 136 -146 286 -1 119
16 168 78 232 66 68 111 81 294 87 l164 6 29 33 c16 18 29 43 29 57 0 22 -4
25 -35 25 -19 0 -35 2 -35 5 0 15 150 229 155 223 1 -2 34 -51 74 -109z m585
-495 c19 -19 22 -114 4 -132 -9 -9 -145 -12 -550 -12 -521 0 -538 1 -548 19
-16 31 -12 102 7 123 15 17 45 18 544 18 466 0 529 -2 543 -16z"/>
</g>
</svg>
